<svg width="900" height="1100" viewBox="0 0 900 1100" fill="none" xmlns="http://www.w3.org/2000/svg" role="img" aria-label="Professional profile image placeholder">
  <rect width="900" height="1100" fill="transparent"/>
  <ellipse cx="450" cy="990" rx="310" ry="55" fill="white" fill-opacity="0.10"/>
  <path d="M260 830C285 690 615 690 640 830L684 1080H216L260 830Z" fill="url(#suit)"/>
  <path d="M337 780H563L520 920H380L337 780Z" fill="url(#shirt)"/>
  <path d="M360 626H540V790C500 845 400 845 360 790V626Z" fill="#D7D7D7"/>
  <ellipse cx="450" cy="455" rx="190" ry="235" fill="url(#face)"/>
  <path d="M256 382C286 205 605 173 652 372C570 326 456 345 380 311C346 333 302 354 256 382Z" fill="#111111"/>
  <path d="M324 440C340 423 367 423 385 440" stroke="#111111" stroke-width="14" stroke-linecap="round"/>
  <path d="M515 440C533 423 560 423 576 440" stroke="#111111" stroke-width="14" stroke-linecap="round"/>
  <path d="M450 470C438 522 430 552 456 560" stroke="#111111" stroke-width="10" stroke-linecap="round"/>
  <path d="M375 626C420 662 482 662 526 626" stroke="#111111" stroke-width="12" stroke-linecap="round"/>
  <path d="M324 370C386 405 504 387 604 420" stroke="white" stroke-opacity="0.18" stroke-width="24" stroke-linecap="round"/>
  <defs>
    <linearGradient id="suit" x1="450" y1="720" x2="450" y2="1080" gradientUnits="userSpaceOnUse">
      <stop stop-color="#2A2A2A"/>
      <stop offset="1" stop-color="#050505"/>
    </linearGradient>
    <linearGradient id="shirt" x1="450" y1="780" x2="450" y2="920" gradientUnits="userSpaceOnUse">
      <stop stop-color="#F5F5F5"/>
      <stop offset="1" stop-color="#AFAFAF"/>
    </linearGradient>
    <linearGradient id="face" x1="450" y1="220" x2="450" y2="690" gradientUnits="userSpaceOnUse">
      <stop stop-color="#F0F0F0"/>
      <stop offset="1" stop-color="#9F9F9F"/>
    </linearGradient>
  </defs>
</svg>
